<mxfile host="app.diagrams.net" modified="2023-06-29T00:14:05.107Z" agent="Mozilla/5.0 (X11; Linux x86_64) AppleWebKit/537.36 (KHTML, like Gecko) Chrome/114.0.0.0 Safari/537.36" etag="J_UUvwbhFMySaOicD0sb" version="21.5.2" type="device">
  <diagram name="ページ1" id="KhvBOPglhgVMazFNmK-v">
    <mxGraphModel dx="1186" dy="673" grid="1" gridSize="10" guides="1" tooltips="1" connect="1" arrows="1" fold="1" page="1" pageScale="1" pageWidth="827" pageHeight="1169" math="0" shadow="0">
      <root>
        <mxCell id="0" />
        <mxCell id="1" parent="0" />
        <mxCell id="ZWqSM1v4CLszh8yMsWQG-1" value="" style="endArrow=none;dashed=1;html=1;dashPattern=1 3;strokeWidth=2;rounded=0;" edge="1" parent="1">
          <mxGeometry width="50" height="50" relative="1" as="geometry">
            <mxPoint x="347" y="229" as="sourcePoint" />
            <mxPoint x="347" y="189" as="targetPoint" />
          </mxGeometry>
        </mxCell>
        <mxCell id="ZWqSM1v4CLszh8yMsWQG-2" value="" style="html=1;points=[];perimeter=orthogonalPerimeter;outlineConnect=0;targetShapes=umlLifeline;portConstraint=eastwest;newEdgeStyle={&quot;edgeStyle&quot;:&quot;elbowEdgeStyle&quot;,&quot;elbow&quot;:&quot;vertical&quot;,&quot;curved&quot;:0,&quot;rounded&quot;:0};" vertex="1" parent="1">
          <mxGeometry x="342" y="230" width="10" height="80" as="geometry" />
        </mxCell>
        <mxCell id="ZWqSM1v4CLszh8yMsWQG-4" value="" style="endArrow=none;dashed=1;html=1;dashPattern=1 3;strokeWidth=2;rounded=0;" edge="1" parent="1">
          <mxGeometry width="50" height="50" relative="1" as="geometry">
            <mxPoint x="347" y="346" as="sourcePoint" />
            <mxPoint x="347" y="306" as="targetPoint" />
          </mxGeometry>
        </mxCell>
      </root>
    </mxGraphModel>
  </diagram>
</mxfile>
